<?xml version="1.0" standalone="no"?>
<!DOCTYPE svg PUBLIC "-//W3C//DTD SVG 1.1//EN" 
"http://www.w3.org/Graphics/SVG/1.1/DTD/svg11.dtd">

<svg width="20px" height="20px" viewBox="0 0 210 170" fill="none"
xmlns="http://www.w3.org/2000/svg">
<path
    d="M87.316 17.111c7.02 4.482 14.624 12.566 17.548 16.048v.151h.454c0-.05 1.271-1.513 6.354-6.964 6.354-6.812 14.07-10.597 18.154-13.625 4.085-3.028 14.07-6.056 16.188-6.661 2.118-.606 9.985-1.06 12.405-1.06 2.421 0 7.11.606 10.59 1.514 3.48.908 10.439 4.844 13.313 6.51 2.874 1.665 8.926 7.57 10.892 9.689 1.967 2.12 5.749 8.478 7.262 11.657 1.513 3.18 3.177 10.598 4.085 15.442.908 4.845.151 9.387 0 13.172-.151 3.784-2.421 8.326-3.631 11.505-.968 2.544-4.236 7.217-5.749 9.235-29.248 29.825-87.835 89.595-88.199 90.079-.363.485-1.059.909-1.361 1.06h-1.059c-.242 0-.908-.505-1.21-.757-27.534-27.907-83.872-85.204-88.956-91.139-6.353-7.418-8.018-16.653-8.32-17.561-.303-.909-1.21-6.51-1.06-9.84.152-3.331.909-10.144 1.816-13.172.908-3.028 4.539-11.354 5.295-12.868.757-1.514 7.716-9.992 13.01-14.837C30.434 9.845 42.234 6.363 44.2 5.757c1.966-.606 12.102-.757 14.069-.606 1.967.152 8.472 1.666 11.195 2.423 2.723.757 9.077 3.936 17.852 9.537z"
    stroke="#000" stroke-width="10" stroke-linecap="round"
    stroke-linejoin="round" /></svg>
